<!DOCTYPE svg PUBLIC "-//W3C//DTD SVG 1.1//EN" "http://www.w3.org/Graphics/SVG/1.1/DTD/svg11.dtd">
<!-- Uploaded to: SVG Repo, www.svgrepo.com, Transformed by: SVG Repo Mixer Tools -->
<svg fill="#000000" width="800px" height="800px" viewBox="0 0 24 24" id="turn-right-sign" data-name="Flat Line" xmlns="http://www.w3.org/2000/svg" class="icon flat-line">
<g id="SVGRepo_bgCarrier" stroke-width="0"/>
<g id="SVGRepo_tracerCarrier" stroke-linecap="round" stroke-linejoin="round"/>
<g id="SVGRepo_iconCarrier">
<path id="secondary" d="M20.08,8.77,15,13V10H8a1,1,0,0,0-1,1v9a1,1,0,0,1-1,1H4a1,1,0,0,1-1-1V10A4,4,0,0,1,7,6h8V3l5.08,4.23A1,1,0,0,1,20.08,8.77Z" style="fill: #00BFA6; stroke-width: 2;"/>
<path id="primary" d="M20.08,8.77,15,13V10H8a1,1,0,0,0-1,1v9a1,1,0,0,1-1,1H4a1,1,0,0,1-1-1V10A4,4,0,0,1,7,6h8V3l5.08,4.23A1,1,0,0,1,20.08,8.77Z" style="fill: none; stroke: #000000; stroke-linecap: round; stroke-linejoin: round; stroke-width: 2;"/>
</g>
</svg>